<svg width="60" height="67" viewBox="0 0 60 67" fill="none" xmlns="http://www.w3.org/2000/svg">
<path fill-rule="evenodd" clip-rule="evenodd" d="M34.0087 1.07681C31.5291 -0.358935 28.471 -0.358936 25.9913 1.07681L3.99134 13.8152C1.52101 15.2456 0 17.8839 0 20.7384V46.2553C0 49.1099 1.52101 51.7482 3.99133 53.1785L25.9913 65.917C28.4709 67.3527 31.5291 67.3527 34.0087 65.917L56.0087 53.1785C58.479 51.7482 60 49.1099 60 46.2554V20.7384C60 17.8839 58.479 15.2456 56.0087 13.8152L34.0087 1.07681ZM27.9694 36.646L33.1978 46.1633H40.1092L34.3079 36.1791C36.1462 35.6284 37.5309 34.6947 38.4619 33.3778C39.4169 32.061 39.8944 30.5645 39.8944 28.8885C39.8944 27.4041 39.5482 26.0633 38.8559 24.8661C38.1635 23.645 37.1131 22.6873 35.7045 21.993C34.3198 21.2986 32.6367 20.9515 30.6552 20.9515H20.3775V46.1633H26.5012V36.646H27.9694ZM30.2971 32.3004H26.5012V26.0513H30.2971C31.4192 26.0513 32.2548 26.3266 32.8039 26.8773C33.3768 27.428 33.6633 28.1822 33.6633 29.1399C33.6633 30.1455 33.3768 30.9237 32.8039 31.4744C32.2548 32.025 31.4192 32.3004 30.2971 32.3004Z" fill="#00F15E"/>
</svg>
